<?xml version="1.0" encoding="UTF-8" standalone="no"?>
<svg width="188px" height="17px" viewBox="0 0 188 17" version="1.1" xmlns="http://www.w3.org/2000/svg" xmlns:xlink="http://www.w3.org/1999/xlink">
    <!-- Generator: Sketch 48.2 (47327) - http://www.bohemiancoding.com/sketch -->
    <title>wordmark</title>
    <desc>Created with Sketch.</desc>
    <defs></defs>
    <g id="Footer/Home" stroke="none" stroke-width="1" fill="none" fill-rule="evenodd" transform="translate(-1143.000000, -692.000000)">
        <g fill="#FFFFFF" id="footer-logo">
            <g transform="translate(1143.000000, 0.000000)">
                <g id="wordmark" transform="translate(0.000000, 692.000000)">
                    <path d="M0.866082265,0.391746004 L4.26262839,0.391746004 L6.53430545,6.64464437 C6.90128401,7.67501371 7.31413488,9.30170308 7.36100443,9.46198276 C7.38294336,9.3713899 7.81972763,7.67501371 8.32432315,6.64464437 L11.3299573,0.2533679 L11.6510636,0.2533679 L14.7035673,6.64464437 C15.1842294,7.65311214 15.6210137,9.30170308 15.666886,9.46198276 C15.6898222,9.3713899 16.102673,7.69890633 16.4925878,6.64464437 L18.7423259,0.391746004 L21.8626409,0.391746004 L16.1944177,16.1051273 L15.8733114,16.1051273 L12.3620845,8.59189309 C11.973167,7.76759762 11.5363828,6.43857051 11.4905104,6.30218345 C11.4675743,6.36987922 10.9849177,7.74470053 10.5960002,8.59189309 L6.94715633,16.1051273 L6.62605009,16.1051273 L0.866082265,0.391746004 Z" id="Fill-5"></path>
                    <polygon id="Fill-7" points="38.1533975 15.9675456 41.3654571 15.9675456 41.3654571 0.391546899 38.1533975 0.391546899"></polygon>
                    <path d="M66.3672676,8.72927567 C65.5864409,7.99656859 64.5084414,6.59885018 64.5084414,6.59885018 C64.5084414,6.59885018 64.737803,8.31712794 64.737803,9.44008119 L64.737803,15.9677447 L61.7321688,15.9677447 L61.7321688,0.2533679 L62.0532751,0.2533679 L69.9233696,7.63021505 C70.6802629,8.34002503 71.7592596,9.76064054 71.7592596,9.76064054 C71.7592596,9.76064054 71.5528342,7.99656859 71.5528342,6.92040506 L71.5528342,0.391746004 L74.5584684,0.391746004 L74.5584684,16.1051273 L74.2383593,16.1051273 L66.3672676,8.72927567 Z" id="Fill-9"></path>
                    <path d="M89.1652122,8.17994446 C89.1652122,3.57563704 92.4241414,0.207772812 97.1270514,0.207772812 C99.6749596,0.207772812 101.51085,0.89568123 102.795275,2.3610954 L100.615342,4.51441799 C99.8355127,3.71301961 98.9410025,3.09479801 97.1270514,3.09479801 C94.3049065,3.09479801 92.4690165,5.27002217 92.4690165,8.17994446 C92.4690165,11.0888712 94.3507788,13.3108851 97.6326442,13.3108851 C98.6418352,13.3108851 99.8813851,13.1277083 100.684151,12.7384577 L100.684151,10.2187816 L96.920626,10.2187816 L96.920626,7.40144319 L103.620976,7.40144319 L103.620976,14.3651471 C102.726466,15.0978542 100.477725,16.1740177 97.6326442,16.1740177 C92.5388222,16.1740177 89.1652122,12.7842519 89.1652122,8.17994446" id="Fill-10"></path>
                    <path d="M126.681889,11.180161 L125.694637,8.82076451 C125.25885,7.79039517 124.799129,6.20949999 124.753257,6.04922031 C124.731318,6.1179116 124.271598,7.74460097 123.835811,8.82076451 L122.849556,11.180161 L126.681889,11.180161 Z M124.66251,0.253268347 L124.937744,0.253268347 L132.073881,15.9686407 L128.700271,15.9686407 L127.828697,13.8601168 L121.770559,13.8601168 L120.898985,15.9686407 L117.801606,15.9686407 L124.66251,0.253268347 Z" id="Fill-11"></path>
                    <polygon id="Fill-12" points="151.727378 3.20908439 147.275768 3.20908439 147.275768 0.391746004 159.392044 0.391746004 159.392044 3.20908439 154.940435 3.20908439 154.940435 15.9677447 151.727378 15.9677447"></polygon>
                    <polygon id="Fill-13" points="176.545001 0.391746004 186.870262 0.391746004 186.870262 3.20908439 179.758058 3.20908439 179.758058 6.78202695 186.021624 6.78202695 186.021624 9.53166957 179.758058 9.53166957 179.758058 13.1504063 187.192365 13.1504063 187.192365 15.9677447 176.545001 15.9677447"></polygon>
                </g>
            </g>
        </g>
    </g>
</svg>